<svg width="733" height="732" viewBox="0 0 733 732" version="1.1" xmlns="http://www.w3.org/2000/svg">
  <style>
    .logo-text { fill: #0C0C0C; }
    .icon-accent { fill: #FF1313; }
    @media (prefers-color-scheme: dark) {
      .logo-text { fill: #FEFEFE; }
    }
  </style>
  
  <g transform="translate(165, 311)">
    <path d="M0 0 C4.97615949 1.47715309 7.79610301 4.37678658 11.3125 8 C11.86228516 8.5465625 12.41207031 9.093125 12.97851562 9.65625 C17 13.73268634 17 13.73268634 17 16 C25.25 16 33.5 16 42 16 C41.814375 21.506875 41.814375 21.506875 41.625 27.125 C41.65530433 35.13779014 42.33922035 40.63973909 48.12646484 46.45068359 C50.06171703 48.13250427 52.05036264 49.71467332 54.0703125 51.29296875 C57 54 57 54 57.3359375 56.52734375 C55.80227108 59.36597196 53.85731421 60.92646139 51.33911133 62.89526367 C45.93783811 67.24109096 42.75811703 70.81541364 41.98828125 77.89453125 C41.73309226 82.89327905 41.81797528 87.87219303 42.11254883 92.86791992 C42 95 42 95 40 97 C37.88378906 97.09667969 37.88378906 97.09667969 35.265625 96.921875 C23.10864736 96.15540029 23.10864736 96.15540029 12.5390625 101.2109375 C10.06235875 103.68258933 7.90791241 106.32706095 5.7421875 109.0703125 C3.33411022 111.96409096 3.33411022 111.96409096 0.4921875 112.26953125 C-2.83505482 110.57461941 -5.21904149 108.24695329 -7.75 105.5625 C-8.24371094 105.05912109 -8.73742187 104.55574219 -9.24609375 104.03710938 C-12.82970518 100.34058964 -12.82970518 100.34058964 -14 98 C-14.68626465 97.97494385 -15.3725293 97.9498877 -16.07958984 97.92407227 C-19.17825817 97.80828573 -22.27660923 97.68548115 -25.375 97.5625 C-26.45523438 97.52318359 -27.53546875 97.48386719 -28.6484375 97.44335938 C-29.6796875 97.40146484 -30.7109375 97.35957031 -31.7734375 97.31640625 C-32.72653809 97.27974854 -33.67963867 97.24309082 -34.66162109 97.20532227 C-37 97 -37 97 -39 96 C-39 88.08 -39 80.16 -39 72 C-40.32 71.34 -41.64 70.68 -43 70 C-45.22621043 68.1895445 -47.21948556 66.15065675 -49.25 64.125 C-49.80429688 63.59519531 -50.35859375 63.06539063 -50.9296875 62.51953125 C-52.36859079 61.09126025 -53.69280584 59.5497239 -55 58 C-55 54 -55 54 -53.49609375 52.32421875 C-52.81675781 51.78410156 -52.13742188 51.24398437 -51.4375 50.6875 C-49.93942638 49.48144853 -48.4636964 48.24754862 -47 47 C-46.40388916 46.55342041 -45.80777832 46.10684082 -45.19360352 45.64672852 C-42.11610041 43.07212391 -40.27098146 41.16555408 -39.34594727 37.18676758 C-39.08922825 33.9604886 -39.0298515 30.79854204 -39.0625 27.5625 C-39.04638672 26.44939453 -39.03027344 25.33628906 -39.01367188 24.18945312 C-38.97850774 21.45837201 -38.97482141 18.73108011 -39 16 C-38.351521 16.04825928 -37.70304199 16.09651855 -37.03491211 16.14624023 C-22.70324792 17.24182359 -22.70324792 17.24182359 -10.06640625 11.59375 C-6.3473462 8.03238256 -3.03977052 4.153608 0 0 Z" class="icon-accent"/>
    <path d="M0 0 C3.21658866 1.37360761 4.75812775 2.82200863 6.875 5.5625 C10.40029153 9.29698466 13.39443271 9.60163477 18.4375 9.9375 C20.62447032 9.9899508 22.81250389 10.02123783 25 10 C24.96777344 10.90621094 24.93554688 11.81242187 24.90234375 12.74609375 C24.91356994 20.28304717 24.91356994 20.28304717 28.0703125 26.93359375 C30.29240126 29.11040484 32.52873965 31.11285573 35 33 C33.62639239 36.21658866 32.17799137 37.75812775 29.4375 39.875 C25.70301534 43.40029153 25.39836523 46.39443271 25.0625 51.4375 C25.0100492 53.62447032 24.97876217 55.81250389 25 58 C24.09378906 57.96777344 23.18757813 57.93554688 22.25390625 57.90234375 C14.71695283 57.91356994 14.71695283 57.91356994 8.06640625 61.0703125 C5.88959516 63.29240126 3.88714427 65.52873965 2 68 C-1.21658866 66.62639239 -2.75812775 65.17799137 -4.875 62.4375 C-8.40029153 58.70301534 -11.39443271 58.39836523 -16.4375 58.0625 C-18.62447032 58.0100492 -20.81250389 57.97876217 -23 58 C-22.95166016 56.64068359 -22.95166016 56.64068359 -22.90234375 55.25390625 C-22.91356994 47.71695283 -22.91356994 47.71695283 -26.0703125 41.06640625 C-28.29240126 38.88959516 -30.52873965 36.88714427 -33 35 C-31.62639239 31.78341134 -30.17799137 30.24187225 -27.4375 28.125 C-23.70301534 24.59970847 -23.39836523 21.60556729 -23.0625 16.5625 C-23.0100492 14.37552968 -22.97876217 12.18749611 -23 10 C-22.09378906 10.03222656 -21.18757812 10.06445312 -20.25390625 10.09765625 C-12.71695283 10.08643006 -12.71695283 10.08643006 -6.06640625 6.9296875 C-3.88959516 4.70759874 -1.88714427 2.47126035 0 0 Z" fill="#FFFBFB" transform="translate(0,22)"/>
  </g>
  
  <g class="logo-text">
    <path d="M0 0 C3.856875 -0.061875 7.71375 -0.12375 11.6875 -0.1875 C13.4986731 -0.22846802 13.4986731 -0.22846802 15.34643555 -0.27026367 C16.308479 -0.27775635 17.27052246 -0.28524902 18.26171875 -0.29296875 C19.24100342 -0.3086792 20.22028809 -0.32438965 21.22924805 -0.34057617 C25.43918614 0.17690234 28.04545791 2.04545791 31 5 C31.5126265 8.03403359 31.46584557 10.96141641 31 14 C29.67618483 15.67423683 28.34423339 17.34211215 27 19 C27.88540272 23.98039032 30.68671609 28.52765112 33 33 C28.71 33 24.42 33 20 33 C16 23.25 16 23.25 16 21 C14.35 21 12.7 21 11 21 C11 24.96 11 28.92 11 33 C7.37 33 3.74 33 0 33 C0 22.11 0 11.22 0 0 Z" transform="translate(495,351)"/>
    <path d="M0 0 C5.754375 -0.12375 5.754375 -0.12375 11.625 -0.25 C12.82334473 -0.28641602 14.02168945 -0.32283203 15.25634766 -0.36035156 C21.49662263 -0.42532168 25.27448858 -0.22554264 30 4 C31.55985209 5.55985209 31.24452344 7.08906098 31.3125 9.25 C31.28414398 12.80584533 31.05498007 13.91019922 29.125 17.0625 C27 19 27 19 25 19 C25 19.66 25 20.32 25 21 C25.66 21 26.32 21 27 21 C27.83819158 22.62249941 28.6704116 24.24808497 29.5 25.875 C29.9640625 26.77992188 30.428125 27.68484375 30.90625 28.6171875 C32 31 32 31 32 33 C28.04 33 24.08 33 20 33 C15 23.25 15 23.25 15 21 C13.68 21 12.36 21 11 21 C11 24.96 11 28.92 11 33 C7.37 33 3.74 33 0 33 C0 22.11 0 11.22 0 0 Z" transform="translate(308,351)"/>
    <path d="M0 0 C2.2578125 1.51171875 2.2578125 1.51171875 3.875 3.3125 C3.875 4.9625 3.875 6.6125 3.875 8.3125 C0.245 8.3125 -3.385 8.3125 -7.125 8.3125 C-7.455 7.3225 -7.785 6.3325 -8.125 5.3125 C-10.105 5.3125 -12.085 5.3125 -14.125 5.3125 C-14.455 6.3025 -14.785 7.2925 -15.125 8.3125 C-14.25617188 8.48265625 -13.38734375 8.6528125 -12.4921875 8.828125 C0.39953271 11.53913551 0.39953271 11.53913551 3.875 15.3125 C4.80060129 19.56547833 4.30960529 23.13650921 2.8125 27.1875 C-0.56762503 30.89473391 -3.96441098 32.08358418 -8.81640625 32.59765625 C-14.29367656 32.76905382 -18.49867101 32.55093029 -23.125 29.3125 C-25 27.4375 -25 27.4375 -26.125 25.3125 C-26.125 23.6625 -26.125 22.0125 -26.125 20.3125 C-22.825 20.3125 -19.525 20.3125 -16.125 20.3125 C-16.125 21.6325 -16.125 22.9525 -16.125 24.3125 C-12.825 24.6425 -9.525 24.9725 -6.125 25.3125 C-6.125 23.9925 -6.125 22.6725 -6.125 21.3125 C-7.42824219 21.07466797 -7.42824219 21.07466797 -8.7578125 20.83203125 C-15.53523357 19.45986882 -20.37069892 18.46299284 -25.125 13.3125 C-26.69435594 10.17378812 -26.47701103 7.77394178 -26.125 4.3125 C-19.82993849 -4.01919906 -8.6892418 -5.32301584 0 0 Z" transform="translate(264.125,352.6875)"/>
    <path d="M0 0 C3.3 0 6.6 0 10 0 C10.04898437 1.55332031 10.09796875 3.10664063 10.1484375 4.70703125 C10.22346697 6.74220567 10.29901472 8.77736104 10.375 10.8125 C10.4059375 11.83666016 10.436875 12.86082031 10.46875 13.91601562 C10.50742187 14.89892578 10.54609375 15.88183594 10.5859375 16.89453125 C10.6173584 17.80050049 10.6487793 18.70646973 10.68115234 19.63989258 C10.86027919 22.26525392 10.86027919 22.26525392 13 25 C16 25.41666667 16 25.41666667 19 25 C21.56136221 22.43863779 21.29666857 21.33438669 21.4140625 17.7734375 C21.45273437 16.7421875 21.49140625 15.7109375 21.53125 14.6484375 C21.5621875 13.56820313 21.593125 12.48796875 21.625 11.375 C21.66367187 10.28703125 21.70234375 9.1990625 21.7421875 8.078125 C21.83665846 5.38570255 21.91942581 2.69287416 22 0 C25.63 0 29.26 0 33 0 C33.16246314 4.02246697 33.28115492 8.03833378 33.375 12.0625 C33.42527344 13.19623047 33.47554688 14.32996094 33.52734375 15.49804688 C33.69317497 24.97806467 33.69317497 24.97806467 30.2890625 29.18359375 C25.01636288 34.21320087 19.91236476 34.38808017 12.87890625 34.25 C7.9793981 33.82453389 5.22382434 32.27862453 1.86816406 28.77270508 C-0.35743604 25.46949803 -0.46832457 23.76747171 -0.390625 19.82421875 C-0.37773437 18.66728516 -0.36484375 17.51035156 -0.3515625 16.31835938 C-0.31804687 15.12017578 -0.28453125 13.92199219 -0.25 12.6875 C-0.23195313 11.46998047 -0.21390625 10.25246094 -0.1953125 8.99804688 C-0.14825131 5.99789578 -0.0825131 2.99935111 0 0 Z" transform="translate(456,351)"/>
    <path d="M0 0 C3.63 0 7.26 0 11 0 C11.04898437 1.63710938 11.09796875 3.27421875 11.1484375 4.9609375 C11.22345639 7.098976 11.2990046 9.23699598 11.375 11.375 C11.4059375 12.45523437 11.436875 13.53546875 11.46875 14.6484375 C11.50742187 15.6796875 11.54609375 16.7109375 11.5859375 17.7734375 C11.6173584 18.72653809 11.6487793 19.67963867 11.68115234 20.66162109 C11.78555796 23.18895176 11.78555796 23.18895176 14 25 C17.56592619 24.83582968 17.56592619 24.83582968 21 24 C22.23060421 21.53879159 22.2057723 19.74223134 22.31640625 16.9921875 C22.35830078 16.00605469 22.40019531 15.01992188 22.44335938 14.00390625 C22.48267578 12.97136719 22.52199219 11.93882812 22.5625 10.875 C22.60568359 9.83472656 22.64886719 8.79445313 22.69335938 7.72265625 C22.79962768 5.1486017 22.90033527 2.57431869 23 0 C26.3 0 29.6 0 33 0 C33.17443566 4.39533148 33.28090701 8.78977266 33.375 13.1875 C33.42527344 14.43337891 33.47554688 15.67925781 33.52734375 16.96289062 C33.67228315 25.9732898 33.67228315 25.9732898 31.734375 28.93286133 C26.31919717 33.53692955 20.25382927 34.42729599 13.39453125 34.2421875 C8.31789467 33.7287267 5.77078258 31.82762495 2.3515625 28.15625 C-1.19811179 23.05156846 -0.54329432 17.54539902 -0.3125 11.5625 C-0.28994141 10.44939453 -0.26738281 9.33628906 -0.24414062 8.18945312 C-0.18554831 5.45905125 -0.0958787 2.72934694 0 0 Z" transform="translate(344,351)"/>
    <path d="M0 0 C4.79191176 2.64044118 4.79191176 2.64044118 6.0625 4.6875 C6.59973414 7.36835156 6.83825623 9.95172601 7.0625 12.6875 C3.7625 12.6875 0.4625 12.6875 -2.9375 12.6875 C-3.2675 11.3675 -3.5975 10.0475 -3.9375 8.6875 C-8.55257774 7.64535309 -8.55257774 7.64535309 -12.9375 8.6875 C-12.99134521 10.97891286 -13.03022087 13.27068188 -13.0625 15.5625 C-13.09730469 17.47675781 -13.09730469 17.47675781 -13.1328125 19.4296875 C-13.29391524 22.77343338 -13.29391524 22.77343338 -10.9375 24.6875 C-7.98003508 25.27095476 -7.98003508 25.27095476 -4.9375 24.6875 C-4.2878125 23.45 -4.2878125 23.45 -3.625 22.1875 C-3.068125 21.3625 -2.51125 20.5375 -1.9375 19.6875 C1.09885826 19.22497231 4.01321529 19.39983163 7.0625 19.6875 C7.55178347 23.79748119 7.2413048 25.41403384 4.9375 28.9375 C0.00809479 33.65258325 -4.86910226 34.14092872 -11.46875 34.01171875 C-16.42302118 33.36107871 -20.84481078 30.63926956 -23.9375 26.6875 C-25.12563473 23.12309582 -25.17937953 20.13275218 -25.25 16.375 C-25.28738281 15.07949219 -25.32476562 13.78398437 -25.36328125 12.44921875 C-24.87039174 8.09460778 -23.68433301 6.05569919 -20.9375 2.6875 C-14.55050678 -2.16661485 -7.54116146 -2.99733267 0 0 Z" transform="translate(407.9375,351.3125)"/>
    <path d="M0 0 C8.91 0 17.82 0 27 0 C27 2.64 27 5.28 27 8 C21.72 8 16.44 8 11 8 C11 9.98 11 11.96 11 14 C15.29 14 19.58 14 24 14 C24 16.31 24 18.62 24 21 C19.71 21 15.42 21 11 21 C11 24.96 11 28.92 11 33 C7.37 33 3.74 33 0 33 C0 22.11 0 11.22 0 0 Z" transform="translate(551,351)"/>
    <path d="M0 0 C10.56 0 21.12 0 32 0 C32 2.64 32 5.28 32 8 C28.7 8 25.4 8 22 8 C22 16.25 22 24.5 22 33 C18.37 33 14.74 33 11 33 C11 24.75 11 16.5 11 8 C7.37 8 3.74 8 0 8 C0 5.36 0 2.72 0 0 Z" transform="translate(271,351)"/>
    <path d="M0 0 C4.09792563 -0.47057519 7.92241642 -0.71052822 12 0 C14.56111609 2.29400583 15.88351983 4.76740045 17 8 C17 8.66 17 9.32 17 10 C20.27286682 7.2180632 21.96427697 3.72045933 24 0 C27.96 0 31.92 0 36 0 C34.93916481 1.83429716 33.87623455 3.6673827 32.8125 5.5 C32.17699219 6.60472656 31.54148437 7.70945312 30.88671875 8.84765625 C29.39741501 11.33599604 27.83460445 13.6062212 26.125 15.9375 C22.81637518 21.04688456 23.09913164 27.08814925 23 33 C19.7 33 16.4 33 13 33 C13.06703125 32.19820313 13.1340625 31.39640625 13.203125 30.5703125 C13.3634097 18.78938676 7.96145333 11.68273678 1.08569336 2.54370117 C0 1 0 1 0 0 Z" transform="translate(580,351)"/>
    <path d="M0 0 C10.56 0 21.12 0 32 0 C32 2.64 32 5.28 32 8 C28.37 8 24.74 8 21 8 C21 16.25 21 24.5 21 33 C17.7 33 14.4 33 11 33 C11 24.75 11 16.5 11 8 C7.37 8 3.74 8 0 8 C0 5.36 0 2.72 0 0 Z" transform="translate(419,351)"/>
    <path d="M0 0 C3.63 0 7.26 0 11 0 C11 10.89 11 21.78 11 33 C7.37 33 3.74 33 0 33 C0 22.11 0 11.22 0 0 Z" transform="translate(533,351)"/>
  </g>
</svg>